<svg xmlns="http://www.w3.org/2000/svg" width="1200" height="700" viewBox="0 0 1200 700" fill="none">
  <defs>
    <linearGradient id="bg2" x1="0" y1="0" x2="1" y2="1">
      <stop offset="0%" stop-color="#f0fdfa"/>
      <stop offset="100%" stop-color="#f8fafc"/>
    </linearGradient>
  </defs>
  <rect width="1200" height="700" rx="28" fill="url(#bg2)"/>
  <rect x="40" y="40" width="1120" height="620" rx="24" fill="white" stroke="#dbeafe"/>
  <rect x="70" y="76" width="220" height="32" rx="10" fill="#0f172a"/>
  <rect x="70" y="124" width="340" height="18" rx="8" fill="#94a3b8"/>
  <rect x="70" y="170" width="1060" height="90" rx="14" fill="#f8fafc" stroke="#e2e8f0"/>
  <rect x="96" y="196" width="280" height="14" rx="7" fill="#0f172a"/>
  <rect x="96" y="220" width="630" height="12" rx="6" fill="#64748b"/>
  <rect x="928" y="194" width="170" height="42" rx="12" fill="#0d9488"/>
  <rect x="70" y="284" width="510" height="344" rx="16" fill="#f8fafc" stroke="#e2e8f0"/>
  <rect x="96" y="316" width="220" height="18" rx="8" fill="#0f172a"/>
  <rect x="96" y="356" width="460" height="14" rx="7" fill="#e2e8f0"/>
  <rect x="96" y="382" width="414" height="14" rx="7" fill="#14b8a6"/>
  <rect x="96" y="416" width="460" height="14" rx="7" fill="#e2e8f0"/>
  <rect x="96" y="442" width="350" height="14" rx="7" fill="#06b6d4"/>
  <rect x="96" y="476" width="460" height="14" rx="7" fill="#e2e8f0"/>
  <rect x="96" y="502" width="300" height="14" rx="7" fill="#f59e0b"/>
  <rect x="610" y="284" width="520" height="344" rx="16" fill="#f8fafc" stroke="#e2e8f0"/>
  <rect x="636" y="316" width="200" height="18" rx="8" fill="#0f172a"/>
  <rect x="636" y="354" width="468" height="110" rx="12" fill="white" stroke="#e2e8f0"/>
  <rect x="656" y="378" width="190" height="14" rx="7" fill="#0f172a"/>
  <rect x="656" y="402" width="300" height="12" rx="6" fill="#64748b"/>
  <rect x="656" y="430" width="118" height="18" rx="9" fill="#dcfce7"/>
  <rect x="636" y="482" width="468" height="120" rx="12" fill="white" stroke="#e2e8f0"/>
  <rect x="656" y="506" width="220" height="14" rx="7" fill="#0f172a"/>
  <rect x="656" y="532" width="250" height="12" rx="6" fill="#64748b"/>
  <rect x="656" y="558" width="138" height="18" rx="9" fill="#dbeafe"/>
</svg>
