<svg xmlns="http://www.w3.org/2000/svg" width="1200" height="700" viewBox="0 0 1200 700" fill="none">
  <defs>
    <linearGradient id="bg" x1="0" y1="0" x2="1" y2="1">
      <stop offset="0%" stop-color="#e6fffa"/>
      <stop offset="100%" stop-color="#ecfeff"/>
    </linearGradient>
  </defs>
  <rect width="1200" height="700" rx="28" fill="url(#bg)"/>
  <rect x="36" y="36" width="1128" height="72" rx="16" fill="white" stroke="#dbeafe"/>
  <rect x="56" y="56" width="170" height="32" rx="10" fill="#ccfbf1"/>
  <rect x="888" y="56" width="110" height="32" rx="10" fill="#f1f5f9"/>
  <rect x="1012" y="56" width="132" height="32" rx="10" fill="#0d9488"/>
  <rect x="56" y="146" width="680" height="468" rx="20" fill="white" stroke="#dbeafe"/>
  <rect x="84" y="184" width="190" height="26" rx="8" fill="#ccfbf1"/>
  <rect x="84" y="226" width="520" height="30" rx="8" fill="#0f172a"/>
  <rect x="84" y="268" width="430" height="20" rx="8" fill="#64748b"/>
  <rect x="84" y="314" width="170" height="44" rx="12" fill="#0d9488"/>
  <rect x="268" y="314" width="170" height="44" rx="12" fill="#ffffff" stroke="#cbd5e1"/>
  <rect x="84" y="390" width="180" height="94" rx="12" fill="#f8fafc" stroke="#e2e8f0"/>
  <rect x="276" y="390" width="180" height="94" rx="12" fill="#f8fafc" stroke="#e2e8f0"/>
  <rect x="468" y="390" width="180" height="94" rx="12" fill="#f8fafc" stroke="#e2e8f0"/>
  <rect x="760" y="146" width="384" height="468" rx="20" fill="white" stroke="#dbeafe"/>
  <rect x="788" y="188" width="150" height="24" rx="8" fill="#0f172a"/>
  <rect x="1004" y="188" width="112" height="24" rx="12" fill="#dcfce7"/>
  <rect x="788" y="236" width="328" height="16" rx="8" fill="#e2e8f0"/>
  <rect x="788" y="266" width="256" height="16" rx="8" fill="#14b8a6"/>
  <rect x="788" y="300" width="328" height="16" rx="8" fill="#e2e8f0"/>
  <rect x="788" y="330" width="300" height="16" rx="8" fill="#06b6d4"/>
  <rect x="788" y="364" width="328" height="16" rx="8" fill="#e2e8f0"/>
  <rect x="788" y="394" width="212" height="16" rx="8" fill="#f59e0b"/>
  <rect x="788" y="448" width="96" height="110" rx="12" fill="#f8fafc" stroke="#e2e8f0"/>
  <rect x="904" y="448" width="96" height="110" rx="12" fill="#f8fafc" stroke="#e2e8f0"/>
  <rect x="1020" y="448" width="96" height="110" rx="12" fill="#f8fafc" stroke="#e2e8f0"/>
</svg>
